<svg xmlns="http://www.w3.org/2000/svg" viewBox="365.75 473.90 1367.74 395.73" fill="#141414" role="img" aria-label="Warden"><path fill-rule="evenodd" d="M 533.097 473.896 C 538.686 473.076 566.931 487.167 574.826 490.581 C 617.361 508.686 661.059 523.926 705.627 536.199 C 705.37 561.895 705.3 587.592 705.416 613.288 C 705.441 640.94 707.47 673.696 699.046 699.72 C 673.21 779.541 608.686 831.238 538.355 869.477 C 530.143 872.817 475.337 833.735 466.973 827.15 C 455.676 818.297 444.906 808.792 434.716 798.684 C 402.538 766.414 373.231 721.428 367.167 675.348 C 365.155 660.064 365.868 636.098 365.873 620.046 L 365.959 536.123 C 421.364 521.555 481.205 498.238 533.097 473.896 z M 535.535 507.27 C 538.793 508.356 543.437 510.556 546.646 512.028 C 588.801 531.364 631.674 546.041 675.87 559.997 L 676.006 626.754 C 676.021 640.715 676.64 658.519 674.641 671.888 C 672.861 683.051 669.725 693.954 665.305 704.357 C 646.004 750.783 608.038 787.959 567.339 816.182 C 559.466 821.641 544.49 831.847 535.621 835.484 C 508.9 821.464 476.937 797.348 455.754 776.151 C 428.933 749.312 401.917 710.121 396.696 671.653 C 394.966 658.902 395.457 638.781 395.451 625.269 L 395.405 559.97 C 442.188 545.38 491.305 528.569 535.535 507.27 z"/><path d="M 423.179 585.437 C 429.592 588.254 445.443 598.306 452.157 602.336 C 464.837 638.182 477.265 674.117 489.441 710.138 C 498.025 695.705 505.705 680.77 514.135 666.334 C 520.943 654.675 523.675 652.502 535.79 649.234 C 536.702 649.488 537.613 649.748 538.522 650.015 C 553.114 654.314 556.271 664.73 563.405 677.114 C 569.749 688.126 575.748 699.466 581.842 710.627 C 583.381 705.347 585.387 699.768 587.219 694.553 C 597.979 663.913 607.968 632.628 619.561 602.309 C 628.036 596.796 639.444 590.718 648.582 585.098 C 649.249 617.809 647.077 617.651 636.039 648.044 C 630.474 663.426 625.082 678.871 619.864 694.374 C 614.372 710.846 607.822 733.916 600.118 749.008 C 598.756 751.677 583.325 765.229 579.864 768.335 C 575.02 761.199 568.375 748.714 563.93 740.911 C 554.618 724.442 545.166 708.053 535.575 691.746 C 520.817 717.124 506.371 742.683 492.242 768.417 C 485.84 762.83 471.216 751.455 468.605 743.886 C 460.695 720.965 453.103 697.9 445.224 674.955 C 438.061 654.099 430.065 633.401 423.672 612.322 C 422.532 608.559 423.09 590.363 423.179 585.437 z"/><path fill-rule="evenodd" d="M 1390.23 560.493 C 1399.39 560.408 1408.79 560.578 1417.97 560.644 L 1417.92 751.038 L 1389.95 751.033 L 1389.9 731.81 C 1369.37 757.58 1334.7 759.654 1306.89 744.933 C 1302.1 742.017 1297.7 738.497 1293.8 734.459 C 1252.95 692.205 1282.4 612.706 1344.37 616.846 C 1364.26 618.175 1376.39 624.662 1389.74 639.158 C 1390.14 617.419 1388.36 580.826 1390.23 560.493 z M 1341.28 641.911 C 1365.36 638.77 1387.43 655.776 1390.52 679.869 C 1393.62 703.961 1376.57 725.991 1352.47 729.039 C 1328.44 732.079 1306.48 715.087 1303.39 691.06 C 1300.31 667.034 1317.26 645.044 1341.28 641.911 z"/><path d="M 784.133 620.2 L 814.39 620.032 L 847.112 716.56 C 858.139 684.328 869.38 652.17 880.832 620.087 L 909.067 620.094 C 919.461 651.287 932.195 685.512 943.837 716.348 C 953.679 684.431 965.799 652.02 976.056 620.081 L 1006.12 620.199 L 996.937 645.783 C 983.506 680.031 970.918 716.319 958.398 751.051 L 929.184 751.131 C 917.862 719.625 906.354 688.186 894.66 656.816 L 860.493 751.112 L 831.617 751.091 C 815.474 710.096 799.48 662.181 784.133 620.2 z"/><path fill-rule="evenodd" d="M 1073.69 617.385 C 1099.29 613.567 1134.84 625.769 1138.63 654.944 C 1142.61 685.557 1140.58 719.865 1140.84 751.08 L 1114.04 751.021 L 1113.77 733.958 C 1091.83 760.614 1044.34 762.266 1023.89 733.191 C 1006.43 697.12 1033.78 675.121 1067.72 672.34 C 1082.74 671.109 1097.21 671.914 1111.97 670.464 C 1112.79 670.383 1113.2 668.889 1113.6 668.095 C 1113.61 664.06 1113.05 662.945 1111.92 659.325 C 1105 637.036 1077.76 636.147 1059.55 643.752 C 1052.11 646.856 1048.47 650.055 1042.18 655.879 L 1026.46 638.787 C 1040.43 624.377 1054.11 619.507 1073.69 617.385 z M 1074.18 691.324 C 1082.89 690.327 1103.6 690.926 1113.08 690.983 C 1113.38 713.68 1108.72 723.735 1086.33 731.118 C 1072.35 734.298 1049.76 732.902 1047.01 714.837 C 1046.32 710.246 1047.52 705.573 1050.34 701.882 C 1056.36 694.043 1065.1 692.617 1074.18 691.324 z"/><path fill-rule="evenodd" d="M 1506.51 617.288 C 1534.61 614.056 1561.3 626.328 1573.27 652.621 C 1579.68 666.717 1579.78 678.786 1579.65 693.797 L 1474.93 693.817 C 1481.8 735.032 1526.86 742.727 1553.01 713.629 L 1553.78 712.906 C 1557.51 712.816 1570.07 724.6 1573.72 727.705 C 1561.5 741.856 1551.04 748.83 1531.86 752.644 C 1464.92 765.955 1422.75 698.621 1460.09 643.216 C 1470.35 628.002 1488.07 620.051 1506.51 617.288 z M 1506.75 640.202 C 1532.39 637.588 1547.14 647.929 1552.39 673.183 L 1521.5 673.286 L 1475.07 673.098 C 1479.59 653.606 1487.87 645.666 1506.75 640.202 z"/><path d="M 1673.92 617.301 C 1699.4 613.707 1727.61 628.952 1731 654.684 C 1734.9 684.289 1733.06 721.033 1733 751.098 L 1705.16 751.05 C 1704.61 715.003 1720.57 621.103 1656.77 644.783 C 1641.69 653.173 1637.78 668.414 1637.8 684.711 C 1637.83 706.825 1637.96 728.939 1637.9 751.054 L 1609.44 751.082 L 1609.4 620.123 L 1637.41 620.075 L 1637.35 638.727 C 1648.17 624.841 1656.52 620.214 1673.92 617.301 z"/><path d="M 1243.06 617.311 C 1248.2 616.797 1253.93 617.717 1259.13 618.333 L 1259.06 645.743 C 1244.81 642.562 1230.73 641.76 1219.4 652.849 C 1205.45 666.504 1206.55 686.795 1206.66 704.739 C 1206.75 720.153 1206.74 735.614 1206.76 751.044 L 1179.12 751.091 C 1178.36 748.092 1178.65 718.704 1178.65 714.196 L 1178.81 620.158 L 1206.9 620.116 L 1206.76 640.519 C 1207.78 638.931 1208.85 637.372 1209.96 635.843 C 1218.79 623.794 1228.72 619.415 1243.06 617.311 z"/></svg>